<?xml version="1.0" encoding="UTF-8"?>
<svg version="1.1" xmlns="http://www.w3.org/2000/svg" width="512" height="512">
<path d="M0 0 C0.69181366 -0.00067474 1.38362732 -0.00134949 2.09640503 -0.00204468 C66.04238111 0.09581175 126.45310924 24.09069467 173.59375 67.12890625 C175.73674312 69.06831503 177.92094638 70.94329299 180.125 72.8125 C183.42374873 75.68900889 186.28533734 78.77404753 189.109375 82.11328125 C191.0543342 84.38655621 193.08610655 86.56075649 195.125 88.75 C205.45337567 100.23768314 214.11646869 112.95937829 221.9375 126.25 C222.3794873 126.99169434 222.82147461 127.73338867 223.27685547 128.49755859 C231.35746007 142.16602893 237.48823062 156.35031955 242.9375 171.25 C243.24026855 172.07290527 243.54303711 172.89581055 243.85498047 173.74365234 C265.88988692 234.88824545 260.71574581 304.73566573 233.94482422 363.42626953 C231.73856764 368.10370936 229.37059085 372.6872336 226.9375 377.25 C226.59638184 377.89888184 226.25526367 378.54776367 225.90380859 379.21630859 C216.54747776 396.91358829 204.70711087 412.99102719 191.2109375 427.75390625 C189.71930459 429.39162692 188.24459219 431.04495423 186.7890625 432.71484375 C149.35954932 475.48177849 93.36106994 501.61679973 37.9375 510.25 C37.21626953 510.36714355 36.49503906 510.48428711 35.75195312 510.60498047 C-27.86295379 520.50619054 -96.7020118 502.51341112 -148.42285156 464.77954102 C-156.54711036 458.71601555 -164.23507519 452.20349939 -171.71875 445.37109375 C-173.86174312 443.43168497 -176.04594638 441.55670701 -178.25 439.6875 C-181.54874873 436.81099111 -184.41033734 433.72595247 -187.234375 430.38671875 C-189.1793342 428.11344379 -191.21110655 425.93924351 -193.25 423.75 C-233.73862895 378.60278091 -255.25906655 317.39793681 -255.3125 257.125 C-255.31317474 256.43124268 -255.31384949 255.73748535 -255.31454468 255.02270508 C-255.29355689 241.28139362 -254.23867343 227.83036889 -252.0625 214.25 C-251.9068457 213.27224609 -251.75119141 212.29449219 -251.59082031 211.28710938 C-244.97470562 171.69606777 -228.01064078 132.72446332 -203.0625 101.25 C-202.09763672 99.99703125 -202.09763672 99.99703125 -201.11328125 98.71875 C-188.08509311 82.01729989 -172.86385297 66.13866264 -155.80566406 53.54443359 C-154.02765129 52.22412215 -152.27496329 50.8747299 -150.5234375 49.51953125 C-107.83565251 16.85660218 -53.48015188 0.04754364 0 0 Z " fill="#FDFCFC" transform="translate(255.0625,-0.25)"/>
<path d="M0 0 C0.69181366 -0.00067474 1.38362732 -0.00134949 2.09640503 -0.00204468 C66.04238111 0.09581175 126.45310924 24.09069467 173.59375 67.12890625 C175.73674312 69.06831503 177.92094638 70.94329299 180.125 72.8125 C183.42374873 75.68900889 186.28533734 78.77404753 189.109375 82.11328125 C191.0543342 84.38655621 193.08610655 86.56075649 195.125 88.75 C205.45337567 100.23768314 214.11646869 112.95937829 221.9375 126.25 C222.3794873 126.99169434 222.82147461 127.73338867 223.27685547 128.49755859 C231.35746007 142.16602893 237.48823062 156.35031955 242.9375 171.25 C243.24026855 172.07290527 243.54303711 172.89581055 243.85498047 173.74365234 C265.88988692 234.88824545 260.71574581 304.73566573 233.94482422 363.42626953 C231.73856764 368.10370936 229.37059085 372.6872336 226.9375 377.25 C226.59638184 377.89888184 226.25526367 378.54776367 225.90380859 379.21630859 C216.54747776 396.91358829 204.70711087 412.99102719 191.2109375 427.75390625 C189.71930459 429.39162692 188.24459219 431.04495423 186.7890625 432.71484375 C149.35954932 475.48177849 93.36106994 501.61679973 37.9375 510.25 C37.21626953 510.36714355 36.49503906 510.48428711 35.75195312 510.60498047 C-27.86295379 520.50619054 -96.7020118 502.51341112 -148.42285156 464.77954102 C-156.54711036 458.71601555 -164.23507519 452.20349939 -171.71875 445.37109375 C-173.86174312 443.43168497 -176.04594638 441.55670701 -178.25 439.6875 C-181.54874873 436.81099111 -184.41033734 433.72595247 -187.234375 430.38671875 C-189.1793342 428.11344379 -191.21110655 425.93924351 -193.25 423.75 C-233.73862895 378.60278091 -255.25906655 317.39793681 -255.3125 257.125 C-255.31317474 256.43124268 -255.31384949 255.73748535 -255.31454468 255.02270508 C-255.29355689 241.28139362 -254.23867343 227.83036889 -252.0625 214.25 C-251.9068457 213.27224609 -251.75119141 212.29449219 -251.59082031 211.28710938 C-244.97470562 171.69606777 -228.01064078 132.72446332 -203.0625 101.25 C-202.09763672 99.99703125 -202.09763672 99.99703125 -201.11328125 98.71875 C-188.08509311 82.01729989 -172.86385297 66.13866264 -155.80566406 53.54443359 C-154.02765129 52.22412215 -152.27496329 50.8747299 -150.5234375 49.51953125 C-107.83565251 16.85660218 -53.48015188 0.04754364 0 0 Z M-10.4296875 19.30078125 C-47.49058786 20.69554632 -83.94787734 31.96189301 -116.0625 50.25 C-115.44821625 53.17269743 -114.52721303 55.4382233 -113 58 C-112.360625 59.0725 -111.72125 60.145 -111.0625 61.25 C-111.7225 61.25 -112.3825 61.25 -113.0625 61.25 C-113.35125 60.321875 -113.64 59.39375 -113.9375 58.4375 C-114.95 55.15208333 -114.95 55.15208333 -117.0625 52.25 C-135.36248355 56.18923352 -152.97423457 75.70764762 -166.0625 88.25 C-166.88363281 89.02988281 -167.70476562 89.80976562 -168.55078125 90.61328125 C-174.21060088 96.11669826 -179.18182246 102.05244488 -184.0625 108.25 C-184.87847656 109.27222656 -185.69445312 110.29445313 -186.53515625 111.34765625 C-191.01808841 117.01915929 -195.23692423 122.8189756 -199.1875 128.875 C-199.57808594 129.46708252 -199.96867187 130.05916504 -200.37109375 130.66918945 C-202.13495245 133.43163271 -203.0625 134.90513418 -203.0625 138.25 C-200.12013218 140.46168225 -200.12013218 140.46168225 -197.0625 142.25 C-200.26321611 139.90983321 -200.26321611 139.90983321 -204.04760742 139.32885742 C-207.04477214 140.6990625 -207.64027032 142.61093208 -209.05078125 145.55078125 C-209.58896484 146.66324219 -210.12714844 147.77570313 -210.68164062 148.921875 C-211.2474375 150.13479074 -211.81186129 151.34834783 -212.375 152.5625 C-212.66318604 153.17335449 -212.95137207 153.78420898 -213.24829102 154.41357422 C-218.29285771 165.11383043 -222.64913978 175.91678297 -226.0625 187.25 C-226.29372559 188.00055664 -226.52495117 188.75111328 -226.76318359 189.52441406 C-232.49787342 208.45501293 -235.55111414 228.48382499 -236.0625 248.25 C-236.10246094 249.28253906 -236.14242187 250.31507813 -236.18359375 251.37890625 C-237.08077427 294.39079584 -226.03959718 335.8582003 -205.0625 373.25 C-203.7425 373.25 -202.4225 373.25 -201.0625 373.25 C-201.7225 373.58 -202.3825 373.91 -203.0625 374.25 C-195.70943699 408.40916616 -149.49920207 441.35265563 -122.26953125 459.0703125 C-120.03862786 460.4856991 -120.03862786 460.4856991 -117.0625 460.25 C-114.85081775 457.30763218 -114.85081775 457.30763218 -113.0625 454.25 C-115.43103716 457.46086509 -115.43103716 457.46086509 -115.91088867 461.26464844 C-114.76398038 463.94857886 -113.517154 464.46738409 -110.92578125 465.765625 C-110.04986328 466.20817627 -109.17394531 466.65072754 -108.27148438 467.10668945 C-106.83772461 467.79637817 -106.83772461 467.79637817 -105.375 468.5 C-104.38693359 468.98235107 -103.39886719 469.46470215 -102.38085938 469.96166992 C-45.75175582 497.02388182 19.64538146 500.74179282 78.9375 480.25 C92.57284939 475.4135413 105.28353796 469.23544511 117.9375 462.25 C117.41481534 459.48723823 116.82880413 456.9239124 115.9375 454.25 C117.4225 457.22 117.4225 457.22 118.9375 460.25 C141.63735072 457.28377631 172.21950602 422.42721748 185.75390625 405.19921875 C191.63832947 397.25156306 197.4096048 389.21292522 202.796875 380.91796875 C203.4151416 379.96893677 203.4151416 379.96893677 204.04589844 379.00073242 C205.16440611 377.13190011 205.16440611 377.13190011 204.9375 374.25 C201.99513218 372.03831775 201.99513218 372.03831775 198.9375 370.25 C202.13937301 372.59580017 202.13937301 372.59580017 205.92700195 373.15576172 C208.86455356 371.83234745 209.45301848 370.06417 210.85546875 367.1953125 C211.64739624 365.58052002 211.64739624 365.58052002 212.45532227 363.93310547 C213.00631592 362.75893066 213.55730957 361.58475586 214.125 360.375 C214.40963104 359.77608948 214.69426208 359.17717896 214.98751831 358.56011963 C228.61794832 329.77209403 236.98956454 298.163827 237.9375 266.25 C237.97834717 265.03981201 237.97834717 265.03981201 238.02001953 263.80517578 C239.24917011 221.92902039 230.57128794 174.70068191 206.9375 139.25 C204.55185923 139.82584432 202.27067216 140.47227595 199.9375 141.25 C201.5875 140.26 203.2375 139.27 204.9375 138.25 C201.9997062 115.76771688 167.91417953 85.87207277 150.77734375 72.39453125 C149.84019531 71.68683594 148.90304687 70.97914062 147.9375 70.25 C147.3614502 69.81349121 146.78540039 69.37698242 146.19189453 68.92724609 C133.50416162 57.87576147 133.50416162 57.87576147 118.9375 52.25 C118.6075 52.58 118.2775 52.91 117.9375 53.25 C117.87280518 52.64712158 117.80811035 52.04424316 117.74145508 51.4230957 C116.59614339 48.3273109 115.01740064 47.88713085 112.07421875 46.48046875 C110.5413623 45.74111084 110.5413623 45.74111084 108.97753906 44.98681641 C107.87120117 44.47554199 106.76486328 43.96426758 105.625 43.4375 C103.9248877 42.63965088 103.9248877 42.63965088 102.19042969 41.82568359 C92.30164617 37.26472879 82.32597938 33.48626699 71.9375 30.25 C70.71015137 29.85240479 70.71015137 29.85240479 69.45800781 29.44677734 C49.20231645 22.91661956 28.2000167 19.71131693 6.9375 19.25 C5.73351562 19.22164062 4.52953125 19.19328125 3.2890625 19.1640625 C-1.2870964 19.11264498 -5.85439878 19.23178038 -10.4296875 19.30078125 Z " fill="#E41010" transform="translate(255.0625,-0.25)"/>
<path d="M0 0 C5.54922027 5.39801536 6.16728074 9.69859871 6.3125 17.25 C6.3125 24.61607861 5.39167832 29.5053206 0.19921875 34.85546875 C-1.80132025 36.67731883 -3.85362559 38.35324719 -6 40 C-6.66128906 40.51046875 -7.32257813 41.0209375 -8.00390625 41.546875 C-12.65010534 45 -12.65010534 45 -15 45 C-17.63596117 50.08363941 -19.04366138 54.26196827 -20 60 C-11.42 60 -2.84 60 6 60 C6 63.3 6 66.6 6 70 C-3.57 70 -13.14 70 -23 70 C-22.69707031 74.50914063 -22.39414062 79.01828125 -22.08203125 83.6640625 C-21.88001199 86.68106336 -21.67807268 89.69806933 -21.47631836 92.71508789 C-21.08731477 98.53135746 -20.69639041 104.3474922 -20.30325031 110.16348362 C-19.08539006 128.19765082 -17.90930455 146.23275029 -16.8549366 164.27728271 C-16.54124568 169.62024997 -16.21917328 174.96272092 -15.89758205 180.30521774 C-15.5899508 185.43700678 -15.29736125 190.56938501 -15.01530838 195.70263958 C-14.83531615 198.91385396 -14.64125931 202.12411029 -14.44352341 205.3342762 C-14.35518447 206.81611932 -14.27267468 208.29832422 -14.19667435 209.78085136 C-13.76282608 218.18737032 -12.74749857 225.373987 -9 233 C-8.49823242 234.13904785 -7.99646484 235.2780957 -7.47949219 236.45166016 C-7.00672852 237.47050293 -6.53396484 238.4893457 -6.046875 239.5390625 C-5.24817993 241.26213623 -5.24817993 241.26213623 -4.43334961 243.02001953 C-3.60009155 244.80448486 -3.60009155 244.80448486 -2.75 246.625 C-2.46109894 247.24582458 -2.17219788 247.86664917 -1.87454224 248.50628662 C1.6278185 256.03136298 5.19567998 263.51299197 8.97167969 270.90478516 C12.15451081 277.18930342 15.06625478 283.59634076 18 290 C21.24029949 297.06951652 24.48155169 304.1264774 28 311.0625 C31.58188364 318.13708372 35.09222298 325.24494793 38.5625 332.375 C39.11228516 333.48883057 39.66207031 334.60266113 40.22851562 335.75024414 C40.73189453 336.78914795 41.23527344 337.82805176 41.75390625 338.8984375 C42.21095947 339.83349121 42.6680127 340.76854492 43.13891602 341.73193359 C43.42307373 342.48039551 43.70723145 343.22885742 44 344 C43.67 344.66 43.34 345.32 43 346 C42.40574219 345.1028125 41.81148438 344.205625 41.19921875 343.28125 C35.34848405 334.46630242 29.40227125 325.72229129 23.39111328 317.01611328 C21.08955816 313.68051444 18.795121 310.34002759 16.5 307 C15.58336788 305.66664292 14.6667012 304.33330959 13.75 303 C11.91666667 300.33333333 10.08333333 297.66666667 8.25 295 C7.7960083 294.33967773 7.3420166 293.67935547 6.87426758 292.99902344 C5.95993174 291.66902133 5.04570602 290.3389435 4.1315918 289.00878906 C1.80517227 285.62385073 -0.52329465 282.24035157 -2.85546875 278.859375 C-5.57782442 274.91137608 -8.29147697 270.95749897 -11 267 C-11.41507812 266.39510742 -11.83015625 265.79021484 -12.2578125 265.16699219 C-13.40617306 263.48983011 -14.54705657 261.80755562 -15.6875 260.125 C-16.65236328 258.70574219 -16.65236328 258.70574219 -17.63671875 257.2578125 C-19 255 -19 255 -19 253 C-19.66 253 -20.32 253 -21 253 C-21.10957031 253.60585938 -21.21914063 254.21171875 -21.33203125 254.8359375 C-22.50441057 261.03143795 -24.08338447 266.99460467 -26 273 C-29.45350028 266.82187889 -31.11921269 259.63323818 -33.22290039 252.91455078 C-33.77664233 251.15719705 -34.33800709 249.40222465 -34.9074707 247.64990234 C-38.19771048 237.5209179 -40.57278558 228.21409233 -40.88793945 217.54589844 C-41.04350527 212.62337581 -41.76516768 207.85266371 -42.5625 203 C-42.77036133 201.67742187 -42.77036133 201.67742187 -42.98242188 200.328125 C-43.31504262 198.21770371 -43.65647626 196.108674 -44 194 C-40.125 195.875 -40.125 195.875 -39 197 C-36.94706801 173.42338227 -35.15184224 149.83974211 -33.63745117 126.22241211 C-33.42042117 122.84218208 -33.19821035 119.4623538 -32.97143555 116.08276367 C-31.22626868 91.66529198 -31.22626868 91.66529198 -31.05769348 67.19926453 C-31.18287657 61.78403611 -30.54447572 56.85161877 -29.48609924 51.54005432 C-28.88002162 48.37306713 -28.58677856 45.23497182 -28.3671875 42.01953125 C-28.28339844 40.83681641 -28.19960937 39.65410156 -28.11328125 38.43554688 C-28.03464844 37.23994141 -27.95601562 36.04433594 -27.875 34.8125 C-27.78863281 33.57435547 -27.70226562 32.33621094 -27.61328125 31.06054688 C-27.40340735 28.04069471 -27.19908871 25.02057905 -27 22 C-26.67 22 -26.34 22 -26 22 C-25.34 27.94 -24.68 33.88 -24 40 C-22.0509375 38.1746875 -22.0509375 38.1746875 -20.0625 36.3125 C-16.23222331 32.87615999 -12.48950505 30.39715583 -7.84765625 28.203125 C-5.53951879 26.70015177 -4.91560368 25.58414034 -4 23 C-3.37819588 18.48830498 -3.22352975 14.4179022 -5.4375 10.375 C-9.27661173 8.31498883 -12.74087756 8.2256141 -17 9 C-19.87029869 10.79393668 -21.49131638 11.98263276 -23 15 C-23.66 15 -24.32 15 -25 15 C-26.32421875 13.609375 -26.32421875 13.609375 -27.6875 11.75 C-28.14511719 11.14671875 -28.60273438 10.5434375 -29.07421875 9.921875 C-30 8 -30 8 -29.8828125 5.96484375 C-28.75060982 3.44494132 -27.41920915 2.42313981 -25.1875 0.8125 C-24.50042969 0.30332031 -23.81335938 -0.20585938 -23.10546875 -0.73046875 C-16.46228772 -4.73609739 -6.23929618 -4.45664013 0 0 Z " fill="#020202" transform="translate(282,36)"/>
<path d="M0 0 C0.69181366 -0.00067474 1.38362732 -0.00134949 2.09640503 -0.00204468 C66.04238111 0.09581175 126.45310924 24.09069467 173.59375 67.12890625 C175.73674312 69.06831503 177.92094638 70.94329299 180.125 72.8125 C183.42374873 75.68900889 186.28533734 78.77404753 189.109375 82.11328125 C191.0543342 84.38655621 193.08610655 86.56075649 195.125 88.75 C205.45337567 100.23768314 214.11646869 112.95937829 221.9375 126.25 C222.3794873 126.99169434 222.82147461 127.73338867 223.27685547 128.49755859 C231.35746007 142.16602893 237.48823062 156.35031955 242.9375 171.25 C243.24026855 172.07290527 243.54303711 172.89581055 243.85498047 173.74365234 C265.88988692 234.88824545 260.71574581 304.73566573 233.94482422 363.42626953 C231.73856764 368.10370936 229.37059085 372.6872336 226.9375 377.25 C226.59638184 377.89888184 226.25526367 378.54776367 225.90380859 379.21630859 C216.54747776 396.91358829 204.70711087 412.99102719 191.2109375 427.75390625 C189.71930459 429.39162692 188.24459219 431.04495423 186.7890625 432.71484375 C149.35954932 475.48177849 93.36106994 501.61679973 37.9375 510.25 C37.21626953 510.36714355 36.49503906 510.48428711 35.75195312 510.60498047 C-27.86295379 520.50619054 -96.7020118 502.51341112 -148.42285156 464.77954102 C-156.54711036 458.71601555 -164.23507519 452.20349939 -171.71875 445.37109375 C-173.86174312 443.43168497 -176.04594638 441.55670701 -178.25 439.6875 C-181.54874873 436.81099111 -184.41033734 433.72595247 -187.234375 430.38671875 C-189.1793342 428.11344379 -191.21110655 425.93924351 -193.25 423.75 C-233.73862895 378.60278091 -255.25906655 317.39793681 -255.3125 257.125 C-255.31317474 256.43124268 -255.31384949 255.73748535 -255.31454468 255.02270508 C-255.29355689 241.28139362 -254.23867343 227.83036889 -252.0625 214.25 C-251.9068457 213.27224609 -251.75119141 212.29449219 -251.59082031 211.28710938 C-244.97470562 171.69606777 -228.01064078 132.72446332 -203.0625 101.25 C-202.09763672 99.99703125 -202.09763672 99.99703125 -201.11328125 98.71875 C-188.08509311 82.01729989 -172.86385297 66.13866264 -155.80566406 53.54443359 C-154.02765129 52.22412215 -152.27496329 50.8747299 -150.5234375 49.51953125 C-107.83565251 16.85660218 -53.48015188 0.04754364 0 0 Z M-112.0625 28.25 C-112.79662109 28.60674805 -113.53074219 28.96349609 -114.28710938 29.33105469 C-134.94606651 39.51150561 -153.59745773 52.98373832 -170.34375 68.7421875 C-172.32815599 70.57263095 -174.30466253 72.26330427 -176.40625 73.9453125 C-177.2828125 74.70585938 -178.159375 75.46640625 -179.0625 76.25 C-179.0625 76.91 -179.0625 77.57 -179.0625 78.25 C-179.7225 78.25 -180.3825 78.25 -181.0625 78.25 C-182.56523886 79.69683052 -182.56523886 79.69683052 -184.125 81.625 C-186.87911343 84.87153288 -189.6876088 88.04723423 -192.5625 91.1875 C-224.02731639 126.20736309 -244.43356979 172.84748856 -251.0625 219.25 C-251.16691406 219.95511719 -251.27132812 220.66023437 -251.37890625 221.38671875 C-258.53295026 271.82725691 -249.41941798 323.67086479 -227.0625 369.25 C-226.73282227 369.92321289 -226.40314453 370.59642578 -226.06347656 371.29003906 C-211.93903459 399.72533697 -190.8414414 428.1988975 -166.0625 448.25 C-164.89123607 449.23224952 -163.72074473 450.21542062 -162.55078125 451.19921875 C-153.76743865 458.52751236 -144.76575366 465.19441894 -135.0625 471.25 C-134.42296387 471.65283203 -133.78342773 472.05566406 -133.12451172 472.47070312 C-103.86462838 490.75541358 -71.20004591 503.10134613 -37.0625 508.25 C-36.26859863 508.37697266 -35.47469727 508.50394531 -34.65673828 508.63476562 C-9.21167167 512.54016063 18.66936528 511.70537525 43.9375 507.25 C45.13536133 507.04914795 45.13536133 507.04914795 46.35742188 506.84423828 C92.16419398 498.97775473 136.46282411 477.19193962 170.46875 445.53125 C172.51794082 443.63769392 174.6049028 441.8440214 176.75 440.0625 C198.2924945 421.20182625 214.75087621 396.44434635 227.9375 371.25 C228.32292969 370.51861816 228.70835937 369.78723633 229.10546875 369.03369141 C236.38888418 355.02305994 241.28903869 340.31011688 245.9375 325.25 C246.17339844 324.49734863 246.40929687 323.74469727 246.65234375 322.96923828 C253.21916618 301.71827126 255.15738648 279.43385228 255.125 257.3125 C255.12406342 256.48786255 255.12312683 255.6632251 255.12216187 254.81359863 C255.0918877 242.51960145 254.87147946 230.41495422 252.9375 218.25 C252.80811035 217.37279297 252.6787207 216.49558594 252.54541016 215.59179688 C250.39725252 201.54260322 246.56466283 188.15381549 242.125 174.6875 C241.75873505 173.56214844 241.75873505 173.56214844 241.3850708 172.4140625 C237.8049275 161.49859006 233.32713242 151.38896108 227.9375 141.25 C227.46078857 140.3437085 226.98407715 139.43741699 226.49291992 138.50366211 C225.33018804 136.32231223 224.14396223 134.15742023 222.9375 132 C222.51799072 131.24895996 222.09848145 130.49791992 221.66625977 129.72412109 C187.90728138 69.96567158 130.17122719 27.88006214 64.54614258 9.6262207 C5.57469178 -5.96100698 -57.53445641 1.72098132 -112.0625 28.25 Z " fill="#0A0000" transform="translate(255.0625,-0.25)"/>
<path d="M0 0 C1.21171875 -0.02578125 2.4234375 -0.0515625 3.671875 -0.078125 C8.89105332 0.40048961 12.90988313 2.28986643 16.375 6.25 C25.20033081 17.18321823 25.2590448 32.86847132 24.25 46.25 C23.07681059 55.09184217 20.97736494 63.95721935 14.25 70.25 C8.27807487 74.6578495 1.48764489 75.22090358 -5.75 74.25 C-11.8699884 72.00981733 -15.14462449 68.21460451 -18.1875 62.5625 C-24.45260663 48.41828421 -25.38213455 28.26459898 -19.75 13.65625 C-15.41054264 5.09153154 -9.63579092 0.12197204 0 0 Z " fill="#040404" transform="translate(122.75,135.75)"/>
<path d="M0 0 C1.30735107 0.00081573 1.30735107 0.00081573 2.64111328 0.00164795 C17.96025612 0.04533505 32.65884417 1.20878968 47.6875 4.375 C48.71182129 4.58930664 49.73614258 4.80361328 50.79150391 5.02441406 C92.29404643 13.99758376 128.95928567 33.38419438 160.6875 61.375 C161.20441406 61.82875 161.72132813 62.2825 162.25390625 62.75 C175.05469269 74.04292438 185.62107929 86.64191693 195.6875 100.375 C196.34468018 101.26300293 196.34468018 101.26300293 197.01513672 102.16894531 C216.35703873 128.60773719 228.10938828 159.52415839 234.6875 191.375 C235.00291748 192.78845703 235.00291748 192.78845703 235.32470703 194.23046875 C241.38663929 221.76114446 241.32433677 253.74791593 235.6875 281.375 C235.38948486 282.85395752 235.38948486 282.85395752 235.08544922 284.36279297 C227.53975044 320.633017 212.87896287 355.29165197 189.6875 384.375 C188.62982422 385.72078125 188.62982422 385.72078125 187.55078125 387.09375 C165.74346992 414.34310132 139.5474552 435.22418607 108.6875 451.375 C108.01557617 451.72804199 107.34365234 452.08108398 106.65136719 452.44482422 C86.9634299 462.63008945 65.44925944 469.38820417 43.6875 473.375 C42.83849121 473.53726074 41.98948242 473.69952148 41.11474609 473.86669922 C-17.80586582 484.70665991 -82.59929317 470.74892127 -132.02099609 437.12768555 C-141.1621994 430.76961444 -149.86957695 423.99948757 -158.05859375 416.44140625 C-160.0588006 414.60759442 -162.10593238 412.86462633 -164.1875 411.125 C-174.48254453 402.11424674 -183.15427881 391.30638398 -191.3125 380.375 C-192.43398437 378.87259766 -192.43398437 378.87259766 -193.578125 377.33984375 C-214.05303491 348.80017616 -227.61163225 315.78837119 -234.3125 281.375 C-234.47621094 280.54935547 -234.63992187 279.72371094 -234.80859375 278.87304688 C-246.0539399 219.06825144 -231.02347531 154.13011378 -196.9375 104.125 C-185.59775366 87.90737567 -172.59727281 72.02251145 -157.3125 59.375 C-156.00732422 58.20324219 -156.00732422 58.20324219 -154.67578125 57.0078125 C-123.95843406 29.64550307 -85.3636333 12.48542668 -45.375 4.25 C-44.61316406 4.09120361 -43.85132813 3.93240723 -43.06640625 3.76879883 C-28.70800437 0.92553612 -14.59961978 -0.03454499 0 0 Z M-10.6796875 1.42578125 C-47.74058786 2.82054632 -84.19787734 14.08689301 -116.3125 32.375 C-115.69821625 35.29769743 -114.77721303 37.5632233 -113.25 40.125 C-112.610625 41.1975 -111.97125 42.27 -111.3125 43.375 C-111.9725 43.375 -112.6325 43.375 -113.3125 43.375 C-113.60125 42.446875 -113.89 41.51875 -114.1875 40.5625 C-115.2 37.27708333 -115.2 37.27708333 -117.3125 34.375 C-135.61248355 38.31423352 -153.22423457 57.83264762 -166.3125 70.375 C-167.13363281 71.15488281 -167.95476562 71.93476562 -168.80078125 72.73828125 C-174.46060088 78.24169826 -179.43182246 84.17744488 -184.3125 90.375 C-185.12847656 91.39722656 -185.94445312 92.41945313 -186.78515625 93.47265625 C-191.26808841 99.14415929 -195.48692423 104.9439756 -199.4375 111 C-199.82808594 111.59208252 -200.21867187 112.18416504 -200.62109375 112.79418945 C-202.38495245 115.55663271 -203.3125 117.03013418 -203.3125 120.375 C-200.37013218 122.58668225 -200.37013218 122.58668225 -197.3125 124.375 C-200.51321611 122.03483321 -200.51321611 122.03483321 -204.29760742 121.45385742 C-207.29477214 122.8240625 -207.89027032 124.73593208 -209.30078125 127.67578125 C-209.83896484 128.78824219 -210.37714844 129.90070313 -210.93164062 131.046875 C-211.4974375 132.25979074 -212.06186129 133.47334783 -212.625 134.6875 C-212.91318604 135.29835449 -213.20137207 135.90920898 -213.49829102 136.53857422 C-218.54285771 147.23883043 -222.89913978 158.04178297 -226.3125 169.375 C-226.54372559 170.12555664 -226.77495117 170.87611328 -227.01318359 171.64941406 C-232.74787342 190.58001293 -235.80111414 210.60882499 -236.3125 230.375 C-236.35246094 231.40753906 -236.39242187 232.44007813 -236.43359375 233.50390625 C-237.33077427 276.51579584 -226.28959718 317.9832003 -205.3125 355.375 C-203.9925 355.375 -202.6725 355.375 -201.3125 355.375 C-201.9725 355.705 -202.6325 356.035 -203.3125 356.375 C-195.95943699 390.53416616 -149.74920207 423.47765563 -122.51953125 441.1953125 C-120.28862786 442.6106991 -120.28862786 442.6106991 -117.3125 442.375 C-115.10081775 439.43263218 -115.10081775 439.43263218 -113.3125 436.375 C-115.68103716 439.58586509 -115.68103716 439.58586509 -116.16088867 443.38964844 C-115.01398038 446.07357886 -113.767154 446.59238409 -111.17578125 447.890625 C-110.29986328 448.33317627 -109.42394531 448.77572754 -108.52148438 449.23168945 C-107.08772461 449.92137817 -107.08772461 449.92137817 -105.625 450.625 C-104.63693359 451.10735107 -103.64886719 451.58970215 -102.63085938 452.08666992 C-46.00175582 479.14888182 19.39538146 482.86679282 78.6875 462.375 C92.32284939 457.5385413 105.03353796 451.36044511 117.6875 444.375 C117.16481534 441.61223823 116.57880413 439.0489124 115.6875 436.375 C117.1725 439.345 117.1725 439.345 118.6875 442.375 C141.38735072 439.40877631 171.96950602 404.55221748 185.50390625 387.32421875 C191.38832947 379.37656306 197.1596048 371.33792522 202.546875 363.04296875 C203.1651416 362.09393677 203.1651416 362.09393677 203.79589844 361.12573242 C204.91440611 359.25690011 204.91440611 359.25690011 204.6875 356.375 C201.74513218 354.16331775 201.74513218 354.16331775 198.6875 352.375 C201.88937301 354.72080017 201.88937301 354.72080017 205.67700195 355.28076172 C208.61455356 353.95734745 209.20301848 352.18917 210.60546875 349.3203125 C211.39739624 347.70552002 211.39739624 347.70552002 212.20532227 346.05810547 C212.75631592 344.88393066 213.30730957 343.70975586 213.875 342.5 C214.15963104 341.90108948 214.44426208 341.30217896 214.73751831 340.68511963 C228.36794832 311.89709403 236.73956454 280.288827 237.6875 248.375 C237.72834717 247.16481201 237.72834717 247.16481201 237.77001953 245.93017578 C238.99917011 204.05402039 230.32128794 156.82568191 206.6875 121.375 C204.30185923 121.95084432 202.02067216 122.59727595 199.6875 123.375 C201.3375 122.385 202.9875 121.395 204.6875 120.375 C201.7497062 97.89271688 167.66417953 67.99707277 150.52734375 54.51953125 C149.59019531 53.81183594 148.65304687 53.10414062 147.6875 52.375 C147.1114502 51.93849121 146.53540039 51.50198242 145.94189453 51.05224609 C133.25416162 40.00076147 133.25416162 40.00076147 118.6875 34.375 C118.3575 34.705 118.0275 35.035 117.6875 35.375 C117.62280518 34.77212158 117.55811035 34.16924316 117.49145508 33.5480957 C116.34614339 30.4523109 114.76740064 30.01213085 111.82421875 28.60546875 C110.2913623 27.86611084 110.2913623 27.86611084 108.72753906 27.11181641 C107.62120117 26.60054199 106.51486328 26.08926758 105.375 25.5625 C103.6748877 24.76465088 103.6748877 24.76465088 101.94042969 23.95068359 C92.05164617 19.38972879 82.07597938 15.61126699 71.6875 12.375 C70.46015137 11.97740479 70.46015137 11.97740479 69.20800781 11.57177734 C48.95231645 5.04161956 27.9500167 1.83631693 6.6875 1.375 C5.48351562 1.34664062 4.27953125 1.31828125 3.0390625 1.2890625 C-1.5370964 1.23764498 -6.10439878 1.35678038 -10.6796875 1.42578125 Z " fill="#190C0C" transform="translate(255.3125,17.625)"/>
<path d="M0 0 C4.702842 2.00289894 7.17727869 4.45766707 9.1484375 9.1796875 C11.1076831 16.14178663 9.76205444 21.95833561 6.76953125 28.38671875 C5.1640625 30.11328125 5.1640625 30.11328125 3.76953125 31.38671875 C5.13078125 32.31484375 5.13078125 32.31484375 6.51953125 33.26171875 C11.40810291 37.38572707 13.28455612 42.9127132 14.15234375 49.12890625 C14.45921249 56.35055056 13.07217316 63.33217853 8.4140625 69.05078125 C3.98935139 73.10775497 -0.914836 74.17996583 -6.73046875 74.69921875 C-12.61043337 74.17422191 -16.61313453 72.3898593 -20.54296875 68.01171875 C-26.37548087 61.01270421 -25.81857678 53.02455549 -25.23046875 44.38671875 C-24.09750122 38.61566538 -21.14615768 34.61989597 -17.23046875 30.38671875 C-18.22046875 28.77796875 -18.22046875 28.77796875 -19.23046875 27.13671875 C-21.960802 21.67605224 -21.92111 16.3666613 -21.23046875 10.38671875 C-17.89916224 0.56813115 -9.54180823 -2.6235795 0 0 Z " fill="#050505" transform="translate(97.23046875,308.61328125)"/>
<path d="M0 0 C5.26365909 4.54588739 8.31712986 10.89138601 8.98876953 17.84814453 C9.81662285 35.36747575 8.88842621 51.64602139 -3.25 65.375 C-6.82542671 68.70097834 -10.02968779 71.27407672 -15 71.5 C-15.7425 71.45875 -16.485 71.4175 -17.25 71.375 C-17.58 68.405 -17.91 65.435 -18.25 62.375 C-10.625 58.5 -10.625 58.5 -7.25 57.375 C-6.14831016 55.67730766 -6.14831016 55.67730766 -5.25 53.375 C-4.71375 52.22 -4.1775 51.065 -3.625 49.875 C-2.00623175 46.38123271 -2.00623175 46.38123271 -2.25 42.375 C-3.075 43.035 -3.9 43.695 -4.75 44.375 C-8.5147302 46.86114259 -11.84701563 47.2467909 -16.25 46.375 C-21.80117105 43.49266118 -25.94012437 39.23853044 -28.25 33.375 C-30.58470988 23.80268947 -29.97117503 14.095288 -25.25 5.375 C-18.71247154 -2.71600057 -9.1641591 -4.58207955 0 0 Z " fill="#050505" transform="translate(70.25,221.625)"/>
<path d="M0 0 C0.33 2.97 0.66 5.94 1 9 C0.32453125 9.37511719 -0.3509375 9.75023437 -1.046875 10.13671875 C-8.84247046 14.60904736 -12.87757456 18.56945132 -16 27 C-16 27.99 -16 28.98 -16 30 C-15.49210938 29.6390625 -14.98421875 29.278125 -14.4609375 28.90625 C-11.31574753 26.78589721 -8.74114357 25.15440491 -5 24.375 C-0.02350073 25.41177068 4.20253471 27.69265201 7.36328125 31.75 C12.27175409 40.03193236 12.35872821 50.84302019 10.31640625 60.09765625 C8.31455699 65.60481832 5.88365133 68.77886827 1 72 C-4.59276407 73.86425469 -11.00859202 74.44994171 -16.42578125 71.82421875 C-22.07893662 67.36344267 -24.78356203 62.01732654 -26 55 C-27.46553401 38.86931203 -26.38972487 23.00932589 -16.94140625 9.31640625 C-12.3203454 3.80274613 -7.29562199 -0.19199005 0 0 Z " fill="#030303" transform="translate(261,402)"/>
<path d="M0 0 C3.3 0 6.6 0 10 0 C10 14.52 10 29.04 10 44 C11.98 44 13.96 44 16 44 C16 47.3 16 50.6 16 54 C14.02 54 12.04 54 10 54 C10 60.27 10 66.54 10 73 C6.7 73 3.4 73 0 73 C0 66.73 0 60.46 0 54 C-8.58 54 -17.16 54 -26 54 C-26 42.74990143 -26 42.74990143 -22.81640625 37.42578125 C-22.48519775 36.8582312 -22.15398926 36.29068115 -21.81274414 35.70593262 C-20.74950659 33.89523014 -19.65709219 32.10438573 -18.5625 30.3125 C-17.82418818 29.06908005 -17.08778539 27.82452464 -16.35327148 26.57885742 C-14.91183706 24.14263613 -13.45867488 21.71419125 -11.9921875 19.29296875 C-10.30045075 16.49662741 -8.62780668 13.69078786 -6.96875 10.875 C-1.31996334 1.31996334 -1.31996334 1.31996334 0 0 Z " fill="#080808" transform="translate(422,313)"/>
<path d="M0 0 C10.56 0 21.12 0 32 0 C32 3.63 32 7.26 32 11 C24.08 11 16.16 11 8 11 C8 16.28 8 21.56 8 27 C9.98 26.01 11.96 25.02 14 24 C19.81124197 23.42516308 24.99419778 24.71845103 29.53125 28.41015625 C35.82342287 35.2210987 36.35525838 43.85022804 36.28515625 52.703125 C35.70833431 59.37213478 32.73440113 65.26559887 28 70 C20.7532626 74.22726349 12.79919108 75.43812468 4.57421875 73.3984375 C1.55195666 72.30445598 -0.71200018 71.28799982 -3 69 C-2.65561395 64.86736741 -0.93570031 61.61891796 1 58 C2.134375 58.66 3.26875 59.32 4.4375 60 C9.01151024 62.27889517 12.9567492 62.79883553 18 62 C20.88397729 60.77277562 22.40403013 59.91172935 24.11328125 57.296875 C25.27850448 54.2785875 25.26481205 51.72902602 25.25 48.5 C25.25515625 47.3759375 25.2603125 46.251875 25.265625 45.09375 C25.00819392 42.09543505 24.67836063 40.4615956 23 38 C19.33496381 35.55664254 16.26440475 35.26128422 12 36 C10.700625 37.051875 10.700625 37.051875 9.375 38.125 C8.199375 39.053125 8.199375 39.053125 7 40 C3.3267353 39.25035414 0.32371691 37.67258012 -3 36 C-2.73785931 31.67639569 -2.47120249 27.3531002 -2.20043945 23.0300293 C-2.10904138 21.56070418 -2.01885685 20.09130303 -1.92993164 18.62182617 C-1.80156775 16.50418058 -1.66877738 14.38685084 -1.53515625 12.26953125 C-1.456604 10.99698486 -1.37805176 9.72443848 -1.29711914 8.41333008 C-1 5 -1 5 0 0 Z " fill="#060606" transform="translate(332,372)"/>
<path d="M0 0 C6.0211784 5.56959002 8.52762663 10.34133033 8.875 18.5625 C8.711745 25.23781549 7.28643708 31.13442084 2.8046875 36.24609375 C-0.80374148 39.52581969 -4.76601803 42.16946899 -8.8125 44.875 C-12.76469269 47.59667871 -15.02555425 49.59427361 -16.5 54.3125 C-16.83 56.6225 -17.16 58.9325 -17.5 61.3125 C-8.92 61.3125 -0.34 61.3125 8.5 61.3125 C8.5 64.9425 8.5 68.5725 8.5 72.3125 C-3.71 72.3125 -15.92 72.3125 -28.5 72.3125 C-28.5 48.94830827 -28.5 48.94830827 -21.44140625 40.19140625 C-18.36879469 37.21771176 -14.86278583 35.10323442 -11.18359375 32.953125 C-6.05603235 29.90704921 -6.05603235 29.90704921 -2.5 25.3125 C-2.32671471 23.33818402 -2.2331318 21.35638061 -2.1875 19.375 C-2.15011719 18.31410156 -2.11273438 17.25320312 -2.07421875 16.16015625 C-2.22944283 13.23424018 -2.22944283 13.23424018 -4.28515625 11.46875 C-7.70329449 9.6843251 -10.80869699 9.45606459 -14.5 10.3125 C-17.48985738 12.06675305 -19.84841838 14.03971575 -22.5 16.3125 C-24.48 13.6725 -26.46 11.0325 -28.5 8.3125 C-21.32538065 -0.96200794 -11.43994767 -5.51568905 0 0 Z " fill="#050505" transform="translate(428.5,127.6875)"/>
<path d="M0 0 C3.24953676 0.98898945 4.4265086 1.96582224 6.06494141 4.92041016 C9.23530907 12.16461813 9.60465594 18.65952557 9.5 26.5 C9.51546875 27.65886719 9.5309375 28.81773437 9.546875 30.01171875 C9.51419633 37.24187534 8.7975724 43.69987269 5 50 C2.02744608 52.78534936 -1.03977515 53.8432286 -5.0625 54.5 C-8.9383366 53.84028313 -11.00114452 52.53236685 -14 50 C-18.63930344 42.48112891 -18.21199388 34.75312942 -18.25 26.1875 C-18.270625 25.03701172 -18.29125 23.88652344 -18.3125 22.70117188 C-18.34960974 14.60661052 -17.61325351 8.80109601 -12.9375 2 C-8.65843458 -0.91340624 -5.02248399 -0.71276175 0 0 Z " fill="#FAFAFA" transform="translate(128,146)"/>
<path d="M0 0 C4.3070419 1.28398608 7.08740949 3.5591736 9.4375 7.375 C11.9915646 13.25708816 11.780835 19.73815815 11 26 C9.94809856 28.61324393 8.93164366 29.89275237 7 32 C6.67 32.66 6.34 33.32 6 34 C6.763125 34.53625 7.52625 35.0725 8.3125 35.625 C13.31346422 40.04445675 14.80613526 45.18896122 15.25 51.625 C15.14261464 58.00846296 13.65646846 63.89583736 9.6875 68.9375 C2.71576684 74.28789987 -3.32229432 75.00467076 -12 74 C-16.00397078 72.52684094 -18.86649048 69.67437751 -21 66 C-21 65.01 -21 64.02 -21 63 C-18.75 60.75 -18.75 60.75 -16 59 C-13.875 59.0625 -13.875 59.0625 -12 60 C-11.38125 60.7734375 -11.38125 60.7734375 -10.75 61.5625 C-8.29599954 63.57828609 -6.02045173 63.41197975 -2.9375 63.29296875 C-0.25183919 62.88687085 1.16518355 61.98160176 3 60 C4.01702117 56.9489365 4.16582083 54.75800939 4.1875 51.5625 C4.20876953 50.14130859 4.20876953 50.14130859 4.23046875 48.69140625 C3.99341143 45.92305893 3.48042507 44.32864014 2 42 C-1.1000506 39.89639423 -4.33291152 39.50005752 -8 39 C-8 35.7 -8 32.4 -8 29 C-5.94921875 28.54427083 -3.8984375 28.08854167 -1.84765625 27.6328125 C0.20700294 27.17038477 0.20700294 27.17038477 1 25 C1.12199138 23.0027458 1.17547512 21.00094019 1.1875 19 C1.20167969 17.9275 1.21585937 16.855 1.23046875 15.75 C1.28585786 12.85546904 1.28585786 12.85546904 -1 11 C-5.79834561 10.45185969 -5.79834561 10.45185969 -9.9375 12.5 C-10.288125 12.995 -10.63875 13.49 -11 14 C-14.4375 13.1875 -14.4375 13.1875 -18 12 C-18.33 11.01 -18.66 10.02 -19 9 C-17.890625 7.24609375 -17.890625 7.24609375 -16.25 5.4375 C-15.71890625 4.83808594 -15.1878125 4.23867187 -14.640625 3.62109375 C-10.13571459 -0.83018677 -5.99451492 -0.71059599 0 0 Z " fill="#040404" transform="translate(461,219)"/>
<path d="M0 0 C12.87 0 25.74 0 39 0 C39 13 39 13 36.375 16.5 C35.82714844 17.02851563 35.27929688 17.55703125 34.71484375 18.1015625 C22.43967224 31.69093233 20.86145033 55.82320221 19 73 C15.7 73 12.4 73 9 73 C9.61118559 58.52122418 11.3411943 44.82386587 16.25 31.125 C16.51312988 30.37702148 16.77625977 29.62904297 17.04736328 28.85839844 C19.61653646 22.07768543 22.90904996 17.42863577 27 11 C18.09 11 9.18 11 0 11 C0 7.37 0 3.74 0 0 Z " fill="#060606" transform="translate(149,372)"/>
<path d="M0 0 C2.64 0 5.28 0 8 0 C8 24.09 8 48.18 8 73 C4.7 73 1.4 73 -2 73 C-2 54.52 -2 36.04 -2 17 C-3.65 17 -5.3 17 -7 17 C-7.3503316 13.60048598 -7.53840296 10.38500869 -7 7 C-4.0625 4.5625 -4.0625 4.5625 -1 3 C-0.67 2.01 -0.34 1.02 0 0 Z " fill="#0A0A0A" transform="translate(157,59)"/>
<path d="M0 0 C2.64 0 5.28 0 8 0 C8 24.09 8 48.18 8 73 C4.7 73 1.4 73 -2 73 C-2 54.19 -2 35.38 -2 16 C-3.65 16 -5.3 16 -7 16 C-7 12.7 -7 9.4 -7 6 C-6.21625 5.7525 -5.4325 5.505 -4.625 5.25 C-1.67682892 3.84610901 -1.0975223 2.99324263 0 0 Z " fill="#080808" transform="translate(231,34)"/>
<path d="M0 0 C2.64 0 5.28 0 8 0 C8 24.09 8 48.18 8 73 C4.7 73 1.4 73 -2 73 C-2 54.19 -2 35.38 -2 16 C-3.65 16 -5.3 16 -7 16 C-7.35462228 12.92660687 -7.5343832 10.05815336 -7 7 C-4.0625 4.625 -4.0625 4.625 -1 3 C-0.67 2.01 -0.34 1.02 0 0 Z " fill="#060606" transform="translate(80,136)"/>
<path d="M0 0 C2.64 0 5.28 0 8 0 C8 23.76 8 47.52 8 72 C4.7 72 1.4 72 -2 72 C-2 53.52 -2 35.04 -2 16 C-3.65 16 -5.3 16 -7 16 C-7 12.7 -7 9.4 -7 6 C-6.21625 5.7525 -5.4325 5.505 -4.625 5.25 C-1.67682892 3.84610901 -1.0975223 2.99324263 0 0 Z " fill="#070707" transform="translate(351,64)"/>
<path d="M0 0 C2.64 0 5.28 0 8 0 C8 23.76 8 47.52 8 72 C5.03 72 2.06 72 -1 72 C-1 53.52 -1 35.04 -1 16 C-2.98 16 -4.96 16 -7 16 C-7 12.7 -7 9.4 -7 6 C-6.030625 5.566875 -5.06125 5.13375 -4.0625 4.6875 C-0.72268235 3.2985139 -0.72268235 3.2985139 0 0 Z " fill="#000000" transform="translate(182,60)"/>
<path d="M0 0 C3.28175318 2.52968474 4.69243777 4.07731331 6 8 C6.50588195 14.19705385 6.76262822 19.75919641 3 25 C0.07058855 27.38692784 -3.3108499 27.47088274 -7.03125 27.39453125 C-10.38693026 26.72206358 -11.95936396 24.59717314 -14 22 C-15.46123786 19.07752427 -15.2477615 16.44146161 -15.3125 13.1875 C-15.34988281 11.96417969 -15.38726562 10.74085938 -15.42578125 9.48046875 C-14.92980695 5.4262201 -13.84899719 3.85956861 -11 1 C-7.52468913 -0.73765543 -3.7911999 -0.59585352 0 0 Z " fill="#F7F7F7" transform="translate(96,346)"/>
<path d="M0 0 C2.8562282 1.75268549 4.55346407 3.27703706 6.3125 6.125 C7.65468275 11.73776422 7.7290667 16.99506658 5.75 22.4375 C3.94031667 25.08739344 2.86739651 26.56630175 0 28 C-3.4375 28.5 -3.4375 28.5 -7 28 C-9.63016161 25.8272578 -11.47336894 24.05326212 -13 21 C-13.14901491 18.89946284 -13.22138453 16.79312175 -13.25 14.6875 C-13.27578125 13.55699219 -13.3015625 12.42648437 -13.328125 11.26171875 C-12.88419878 6.84888071 -11.28530296 4.28530296 -8.1875 1.1875 C-5.19555967 -0.43669618 -3.36225157 -0.48032165 0 0 Z " fill="#F5F5F5" transform="translate(257,437)"/>
<path d="M0 0 C3.47672766 2.7209173 5.23069589 4.69500528 6 9 C6.49679681 14.39146707 6.67572799 18.67184499 4.1875 23.5625 C1.61280845 26.43144202 -0.00637521 27.87039677 -3.875 28.375 C-7.85065452 27.89792146 -9.29163424 26.9340629 -12 24 C-14.6323975 18.13693284 -14.34526921 12.1825138 -13 6 C-9.47879117 0.32063093 -6.61422903 -0.67263346 0 0 Z " fill="#F6F5F5" transform="translate(64,230)"/>
<path d="M0 0 C1.0209375 -0.01160156 1.0209375 -0.01160156 2.0625 -0.0234375 C4.64166759 0.50695583 5.48725379 1.22384713 7 3.375 C7.8161173 8.19082729 7.93102252 12.83523198 5.375 17.0625 C2.26794769 18.77955522 0.50031342 18.95838557 -3 18.375 C-5.375 17.0625 -5.375 17.0625 -7 14.375 C-8.23212904 5.12711011 -8.23212904 5.12711011 -5.72265625 1.55859375 C-3.65228142 0.13609131 -2.49556287 -0.02835867 0 0 Z " fill="#F6F5F5" transform="translate(91,317.625)"/>
<path d="M0 0 C0.33 0 0.66 0 1 0 C1 8.25 1 16.5 1 25 C-3.62 25 -8.24 25 -13 25 C-11.66414019 20.99242057 -10.6412538 18.05477611 -8.65234375 14.51171875 C-8.21212891 13.72345703 -7.77191406 12.93519531 -7.31835938 12.12304688 C-6.86267578 11.31931641 -6.40699219 10.51558594 -5.9375 9.6875 C-5.47794922 8.86443359 -5.01839844 8.04136719 -4.54492188 7.19335938 C-1.15472274 1.15472274 -1.15472274 1.15472274 0 0 Z " fill="#F7F7F7" transform="translate(421,331)"/>
<path d="M0 0 C1.01477417 0.24907104 1.01477417 0.24907104 2.05004883 0.50317383 C33.57382275 8.13591425 63.62466963 10.54247404 95.875 7.4375 C99.94310985 7.05630083 103.91621016 6.90924911 108 7 C104.35210153 9.22350319 100.5948082 9.65126114 96.4296875 10.109375 C95.68403534 10.19346619 94.93838318 10.27755737 94.1701355 10.36419678 C85.49464475 11.26329904 76.83847418 11.3099426 68.125 11.25 C67.28906311 11.24623352 66.45312622 11.24246704 65.59185791 11.23858643 C17.9746344 10.9873172 17.9746344 10.9873172 0 2 C0 1.34 0 0.68 0 0 Z " fill="#0D0404" transform="translate(189,483)"/>
<path d="M0 0 C0.33 0.66 0.66 1.32 1 2 C0.0126546 3.67419438 -0.98812105 5.34051852 -2 7 C-2 7.99 -2 8.98 -2 10 C11.63848219 17.20794382 25.27773654 23.28241659 39.87939453 28.26220703 C42.28539057 29.099292 44.64957521 30.01780586 47 31 C46.67 31.66 46.34 32.32 46 33 C29.76541371 27.93388797 14.60138144 21.50226094 -0.5 13.6875 C-1.31976318 13.26694336 -2.13952637 12.84638672 -2.98413086 12.41308594 C-4.12120483 11.81222168 -4.12120483 11.81222168 -5.28125 11.19921875 C-5.95220703 10.84690186 -6.62316406 10.49458496 -7.31445312 10.1315918 C-9 9 -9 9 -11 6 C-8.69 6.66 -6.38 7.32 -4 8 C-3.566875 6.8553125 -3.566875 6.8553125 -3.125 5.6875 C-2 3 -2 3 0 0 Z " fill="#1E0E0E" transform="translate(142,452)"/>
<path d="M0 0 C2.89507884 2.69877611 4.88751594 5.22394565 6.734375 8.71875 C7.46648193 10.10308228 7.46648193 10.10308228 8.21337891 11.51538086 C8.72046387 12.50030518 9.22754883 13.48522949 9.75 14.5 C10.2764209 15.51650635 10.8028418 16.5330127 11.34521484 17.58032227 C17.33137224 29.33617088 23.56137059 41.93181533 26 55 C25.34 55.66 24.68 56.32 24 57 C23.63390625 55.77410156 23.2678125 54.54820312 22.890625 53.28515625 C18.297787 38.48132533 11.97188945 24.82197897 5 11 C4.67 10.34 4.34 9.68 4 9 C0.58978257 9.78697325 -2.68885166 10.87119943 -6 12 C-3.64722731 9.27573689 -1.37503669 8.1858237 2 7 C1.34 4.69 0.68 2.38 0 0 Z " fill="#231111" transform="translate(458,131)"/>
<path d="M0 0 C0.33 0.66 0.66 1.32 1 2 C0.67 2.99 0.34 3.98 0 5 C0.763125 5.268125 1.52625 5.53625 2.3125 5.8125 C4.87380884 6.94424112 6.19692938 7.91223401 8 10 C7.0925 9.690625 6.185 9.38125 5.25 9.0625 C2.83105932 8.27169247 0.46799921 7.59553894 -2 7 C-12.69924712 28.49613453 -12.69924712 28.49613453 -21 51 C-21.66 50.67 -22.32 50.34 -23 50 C-21.07396872 43.09148952 -18.72699572 36.51572129 -15.875 29.9375 C-15.48755615 29.03862061 -15.1001123 28.13974121 -14.70092773 27.21362305 C-4.94723068 4.94723068 -4.94723068 4.94723068 0 0 Z " fill="#2F1313" transform="translate(52,133)"/>
<path d="M0 0 C1 2 1 2 1.375 3.8125 C2.14806024 6.51821086 3.54836769 8.60165096 5 11 C5 11.66 5 12.32 5 13 C4.34 13 3.68 13 3 13 C-1 6.25 -1 6.25 -1 4 C-13.32645654 10.1883843 -24.15256232 18.26149215 -34.6953125 27.08984375 C-36.75334891 28.79557223 -38.84667559 30.41725694 -41 32 C-41 29 -41 29 -38.89453125 26.79296875 C-37.87804445 25.91179684 -36.84955683 25.04436782 -35.8125 24.1875 C-35.25095215 23.71755615 -34.6894043 23.2476123 -34.11083984 22.76342773 C-23.56175007 14.17401175 -11.89189513 6.59400725 0 0 Z " fill="#1E0E0E" transform="translate(139,48)"/>
<path d="M0 0 C1.98 0.66 3.96 1.32 6 2 C6.75 4.75 6.75 4.75 7 8 C5.4375 10.4375 5.4375 10.4375 3 12 C-0.25 11.75 -0.25 11.75 -3 11 C-3.66 9.02 -4.32 7.04 -5 5 C-3.35 3.35 -1.7 1.7 0 0 Z " fill="#E9E9E9" transform="translate(255,250)"/>
<path d="M0 0 C0.66 0.33 1.32 0.66 2 1 C-8.13793057 11.84522805 -20.57399484 20.01394716 -33 28 C-33.928125 28.60972656 -34.85625 29.21945312 -35.8125 29.84765625 C-36.534375 30.22792969 -37.25625 30.60820312 -38 31 C-38.66 30.67 -39.32 30.34 -40 30 C-39.47535156 29.63390625 -38.95070313 29.2678125 -38.41015625 28.890625 C-36.7067286 27.70020967 -35.00514431 26.50715521 -33.3046875 25.3125 C-30.88134444 23.61180295 -28.44632552 21.92886245 -26.0078125 20.25 C-16.90582065 13.94750027 -8.29734885 7.33052733 0 0 Z " fill="#1E0D0D" transform="translate(415,431)"/>
<path d="M0 0 C4.86561211 3.91845156 8.96590156 8.02073133 12.8125 12.9375 C13.3187793 13.57631104 13.82505859 14.21512207 14.34667969 14.87329102 C19.63586262 21.6449979 24.36507656 28.77074995 29 36 C28.34 36.66 27.68 37.32 27 38 C26.59910156 37.34515625 26.19820313 36.6903125 25.78515625 36.015625 C19.16080894 25.38061844 11.71706209 15.58513398 3.45410156 6.18798828 C0 2.21095008 0 2.21095008 0 0 Z " fill="#180A0A" transform="translate(430,94)"/>
<path d="M0 0 C0.66 0.33 1.32 0.66 2 1 C0.35 1.66 -1.3 2.32 -3 3 C0.59810926 10.1669656 4.74624085 16.69203605 9.48388672 23.13916016 C11.83515256 26.33957097 14.02020903 29.55632449 16 33 C12.82066289 31.64174159 11.1757767 30.29300129 9.1953125 27.47265625 C8.69676758 26.7674585 8.19822266 26.06226074 7.68457031 25.33569336 C7.16991211 24.58553955 6.65525391 23.83538574 6.125 23.0625 C5.59487305 22.30138916 5.06474609 21.54027832 4.51855469 20.75610352 C0.58661885 15.03763813 -2.93110551 9.23200941 -6 3 C-4.03533587 1.93224776 -2.03144641 0.93446535 0 0 Z " fill="#1A0F0F" transform="translate(55,371)"/>
<path d="M0 0 C2.88407895 0.3340136 3.89401409 0.88596177 5.90234375 3.046875 C6.57394531 3.93890625 7.24554688 4.8309375 7.9375 5.75 C13.41789655 12.72421701 19.6481658 18.82487835 26 25 C25.34 25.66 24.68 26.32 24 27 C16.78867559 20.03129959 10.20844951 12.89272196 4 5 C2.66751172 3.33265764 1.33442523 1.66579257 0 0 Z " fill="#270F0F" transform="translate(69,404)"/>
<path d="M0 0 C0.33 0.99 0.66 1.98 1 3 C-1.33333333 5.33333333 -3.66666667 7.66666667 -6 10 C-6.79470703 10.85658203 -6.79470703 10.85658203 -7.60546875 11.73046875 C-9 13 -9 13 -11 13 C-11.20625 13.556875 -11.4125 14.11375 -11.625 14.6875 C-13.55000774 17.92501302 -16.03850902 19.68231141 -19 22 C-19 19 -19 19 -17.25585938 16.9152832 C-16.45986328 16.13499756 -15.66386719 15.35471191 -14.84375 14.55078125 C-13.55791016 13.27944336 -13.55791016 13.27944336 -12.24609375 11.98242188 C-10.88677734 10.66081055 -10.88677734 10.66081055 -9.5 9.3125 C-8.59378906 8.41982422 -7.68757813 7.52714844 -6.75390625 6.60742188 C-4.50914832 4.39810749 -2.25770002 2.19607467 0 0 Z " fill="#1A0000" transform="translate(85,65)"/>
<path d="M0 0 C1.0828125 0.4640625 1.0828125 0.4640625 2.1875 0.9375 C4.82494915 1.93386968 7.20939943 2.62289181 10 3 C10.66 2.67 11.32 2.34 12 2 C10.57514189 6.99466391 8.42076712 10.9375749 5.625 15.25 C5.04492188 16.18585938 5.04492188 16.18585938 4.453125 17.140625 C2.35692094 20.4045132 0.75567862 22.73095791 -3 24 C-2.54109375 23.29875 -2.0821875 22.5975 -1.609375 21.875 C1.94801049 16.37450479 5.20520965 10.92495554 8 5 C6.8553125 4.5978125 6.8553125 4.5978125 5.6875 4.1875 C3.12619116 3.05575888 1.80307062 2.08776599 0 0 Z " fill="#3B1D1D" transform="translate(452,369)"/>
<path d="M0 0 C8.51000893 4.34880216 16.24715326 9.45344828 24 15 C23.34 15.66 22.68 16.32 22 17 C21.33355469 16.49210937 20.66710937 15.98421875 19.98046875 15.4609375 C13.5871599 10.68607467 7.10515558 6.62816455 0 3 C-0.66 4.65 -1.32 6.3 -2 8 C-2.33 7.34 -2.66 6.68 -3 6 C-2.06553465 3.96855359 -1.06775224 1.96466413 0 0 Z " fill="#191111" transform="translate(374,49)"/>
<path d="M0 0 C0.66 0.33 1.32 0.66 2 1 C-3.61 6.61 -9.22 12.22 -15 18 C-15.66 17.67 -16.32 17.34 -17 17 C-15.29657414 15.09955869 -13.58752883 13.20471126 -11.875 11.3125 C-11.400625 10.78205078 -10.92625 10.25160156 -10.4375 9.70507812 C-7.18500869 6.12294242 -3.77952775 3.02250068 0 0 Z " fill="#180404" transform="translate(96,79)"/>
<path d="M0 0 C1 2 1 2 1.375 3.8125 C2.14806024 6.51821086 3.54836769 8.60165096 5 11 C5 11.66 5 12.32 5 13 C4.34 13 3.68 13 3 13 C-1 6.25 -1 6.25 -1 4 C-5.95 6.475 -5.95 6.475 -11 9 C-11.33 8.34 -11.66 7.68 -12 7 C-8.04 4.69 -4.08 2.38 0 0 Z " fill="#4F2828" transform="translate(139,48)"/>
<path d="M0 0 C0.33 0.66 0.66 1.32 1 2 C0.0126546 3.67419438 -0.98812105 5.34051852 -2 7 C-2 7.99 -2 8.98 -2 10 C-0.05990478 11.70532323 -0.05990478 11.70532323 2 13 C1.01 13.495 1.01 13.495 0 14 C-2.34765625 12.85546875 -2.34765625 12.85546875 -5.0625 11.1875 C-5.96097656 10.64480469 -6.85945312 10.10210937 -7.78515625 9.54296875 C-10 8 -10 8 -11 6 C-8.69 6.66 -6.38 7.32 -4 8 C-3.566875 6.8553125 -3.566875 6.8553125 -3.125 5.6875 C-2 3 -2 3 0 0 Z " fill="#4E1C1C" transform="translate(142,452)"/>
<path d="M0 0 C3.33557632 2.9905167 5.15083921 5.93184627 7 10 C6.01 10.495 6.01 10.495 5 11 C4.67 10.34 4.34 9.68 4 9 C0.58978257 9.78697325 -2.68885166 10.87119943 -6 12 C-3.64722731 9.27573689 -1.37503669 8.1858237 2 7 C1.34 4.69 0.68 2.38 0 0 Z " fill="#531E1E" transform="translate(458,131)"/>
<path d="M0 0 C3.95906817 1.43308135 7.28718181 3.33141949 10.8125 5.625 C11.78832031 6.25664062 12.76414063 6.88828125 13.76953125 7.5390625 C14.50558594 8.02117187 15.24164063 8.50328125 16 9 C15.34 9.66 14.68 10.32 14 11 C12.03701399 9.73636527 10.07975066 8.4638372 8.125 7.1875 C7.03445312 6.47980469 5.94390625 5.77210938 4.8203125 5.04296875 C2 3 2 3 0 0 Z " fill="#250F0F" transform="translate(116,448)"/>
<path d="M0 0 C0.33 0 0.66 0 1 0 C1.74507544 6.37305598 2.10349817 12.58311325 2 19 C1.01 19 0.02 19 -1 19 C-0.67 12.73 -0.34 6.46 0 0 Z " fill="#3B3B3B" transform="translate(255,58)"/>
<path d="M0 0 C-1.47721422 3.45201639 -3.43794001 5.64961936 -6.125 8.25 C-6.84945313 8.95640625 -7.57390625 9.6628125 -8.3203125 10.390625 C-8.87460937 10.92171875 -9.42890625 11.4528125 -10 12 C-10.66 11.34 -11.32 10.68 -12 10 C-10.38113585 8.32737283 -8.7547271 6.66204463 -7.125 5 C-6.22007812 4.071875 -5.31515625 3.14375 -4.3828125 2.1875 C-2 0 -2 0 0 0 Z " fill="#331616" transform="translate(428,420)"/>
<path d="M0 0 C4.35647645 1.44950405 7.31757289 3.67747112 10.8125 6.625 C11.78832031 7.44226563 12.76414062 8.25953125 13.76953125 9.1015625 C14.50558594 9.72804688 15.24164063 10.35453125 16 11 C15.34 11.66 14.68 12.32 14 13 C9.20228499 8.78762713 4.44381694 4.58716587 0 0 Z " fill="#1C1111" transform="translate(397,65)"/>
<path d="M0 0 C6.01326751 0.57914667 12.00892722 1.22337945 18 2 C17.67 2.66 17.34 3.32 17 4 C14.9163691 3.85848172 12.83310062 3.71162064 10.75 3.5625 C9.58984375 3.48128906 8.4296875 3.40007812 7.234375 3.31640625 C4.69022624 3.06752213 2.44046752 2.71885058 0 2 C0 1.34 0 0.68 0 0 Z " fill="#1D1111" transform="translate(221,490)"/>
<path d="M0 0 C3.21880117 3.7935871 5.6163187 7.65829477 8 12 C7.01 12.495 7.01 12.495 6 13 C4.99193149 11.40089132 3.99379615 9.79551738 3 8.1875 C2.443125 7.29417969 1.88625 6.40085937 1.3125 5.48046875 C0 3 0 3 0 0 Z " fill="#290D0D" transform="translate(451,119)"/>
<path d="M0 0 C2.64 1.32 5.28 2.64 8 4 C7.34 4.66 6.68 5.32 6 6 C4.02 5.01 2.04 4.02 0 3 C-0.66 4.65 -1.32 6.3 -2 8 C-2.33 7.34 -2.66 6.68 -3 6 C-2.06553465 3.96855359 -1.06775224 1.96466413 0 0 Z " fill="#502424" transform="translate(374,49)"/>
<path d="M0 0 C0.66 0.33 1.32 0.66 2 1 C0.35 1.66 -1.3 2.32 -3 3 C-2.34 4.65 -1.68 6.3 -1 8 C-2.9375 7.1875 -2.9375 7.1875 -5 6 C-5.33 5.01 -5.66 4.02 -6 3 C-4.03533587 1.93224776 -2.03144641 0.93446535 0 0 Z " fill="#5C2828" transform="translate(55,371)"/>
</svg>
